<?xml version="1.0" encoding="utf-8"?>
<!-- Generator: Adobe Illustrator 19.0.0, SVG Export Plug-In . SVG Version: 6.00 Build 0)  -->
<svg version="1.1" id="Layer_1" xmlns="http://www.w3.org/2000/svg" xmlns:xlink="http://www.w3.org/1999/xlink" x="0px" y="0px"
	 viewBox="0 0 310.1 350.8" style="enable-background:new 0 0 310.1 350.8;" xml:space="preserve">
<style type="text/css">
	.st0{fill:#CAD1C9;}
	.st1{fill:#883C97;stroke:#712A7F;stroke-width:3;stroke-miterlimit:10;}
	.st2{fill:none;stroke:#712A7F;stroke-width:6;stroke-miterlimit:10;}
	.st3{fill:none;stroke:#712A7F;stroke-width:4;stroke-miterlimit:10;}
	.st4{fill:none;stroke:#712A7F;stroke-width:5;stroke-miterlimit:10;}
	.st5{fill:#8D3F98;stroke:#712A7F;stroke-width:5;stroke-miterlimit:10;}
	.st6{fill:#5E2670;stroke:#712A7F;stroke-width:5;stroke-miterlimit:10;}
	.st7{fill:#8D3E97;stroke:#8D3E97;stroke-miterlimit:10;}
	.st8{fill:#283237;stroke:#712A7F;stroke-width:4;stroke-miterlimit:10;}
	.st9{fill:#36484B;stroke:#712A7F;stroke-width:4;stroke-miterlimit:10;}
	.st10{fill:#36484B;}
	.st11{fill:#8D3F98;}
	.st12{fill:#FFFFFF;}
	.st13{font-family:'Arial-Black';}
	.st14{font-size:18.1623px;}
	.st15{fill:#BDBDBD;}
</style>
<g id="XMLID_68_">
	<g id="XMLID_70_">
		<g id="XMLID_131_">
			<path id="XMLID_134_" class="st0" d="M225.7,62.4c6.7,6.1,8.7,9.3,10,12.3c4.3,10,1.4,19.8-0.8,27.3c-2.6,8.7-5,17.2-12.6,23
				c-10,7.7-23.7,6.8-27.6,16c-0.6,1.3-0.8,2.3-0.8,2.3c0,0.6,0.1,1.1,0.6,2.8c0.4,1.3,0.6,1.9,0.9,2.5c0.5,1.3,1.2,4.3,2,11.3
				c0.9,14.2,0.3,31.7-5.8,50.3c-1.5,4.5-3.5,9.9-3.5,9.9c-1.2,3.3-2.3,5.9-3,7.8c3.5,4.3,7,8.5,10.5,12.8c4.3-1.7,8.5-3.4,12.8-5.1
				c-1.6,3.1-4.4,9.4-3.8,17.5c0.3,3.1,1,5.8,1.8,7.9c-4.9,1.5-9.8,3.1-14.6,4.6c-0.7-3.6-1.7-7.6-3.1-11.9
				c-3.4-9.9-8.1-17.5-12.3-23c-1.3-1.5-2.6-3-3.9-4.5c-2.8,1.2-6.4,2.3-8.1,0.7c-2.3-2.2,0.3-8.3,2.5-13.8
				c8.7-21.7,5.1-42.9,4-49.3c-0.5-3.2-1.6-8.3-4-14.5c-13.1-2.2-26.2-4.3-39.3-6.5c-8.3,29.6-6.4,42.4-2.8,48.5
				c4.2,7.1,5,10.4,6.6,17c0.5,2,1.2,5.3,0.6,9.5c-0.4,2.8-1.2,4.8-1.9,6.5c-3.2,7.6-6.5,10.5-12.4,20c-3.2,5.2-5.1,9-5.8,10.3
				c-1.9,3.9-3.3,7.3-4.3,9.8c-4.5-1-9-1.9-13.5-2.9c0.9-2.6,1.8-6.6,1.6-11.5c-0.3-6.6-2.6-11.6-4-14.3c3.5,2.5,6.7,4,9.3,4.9
				c3.4,1.2,4.5,1.1,4.9,1c4.2-0.7,6.4-6.3,7.5-9c3.5-8.9,2.1-17.9,0.6-23.5c10.8,13.5,14.2,15.4,15.4,14.8c2-1.2-3.1-10.7-7.8-29.5
				c-5.6-22.9-3.9-36.6-3.3-40.8c0.9-6.2,2.4-11.1,3.5-14.3c0.7-2,1.4-4,2.1-6c13.8,2.2,27.6,4.3,41.4,6.5
				c6.6-3.4,13.2-6.8,19.8-10.3c-2,0-5.1,0-8.9-0.1c-16.4-0.4-37.7-0.9-59.7-9.9c-7-2.8-17.2-7.8-28.3-16.7
				c-0.5-1.2-1.1-2.9-1.3-5.1c-0.3-3.5,0.4-7.6,1.5-7.7c0.5,0,1.2,0.7,2.3,4.3c2.4,2.7,6.3,6.4,11.7,9.7c5.5,3.4,10.2,4.8,16.3,6.7
				c14.6,4.3,21.9,6.4,29.1,7.8c21.2,4,31.8,6,40,3.2c21.4-7.4,33.4-34.2,28.6-42.6c-3.2-5.5-6.6-8.5-6.6-8.5
				c-0.6-0.6-2.8-2.5-5.3-5.5c-0.3-0.4-0.5-0.7-0.7-0.9c-5.7-7.3-7.1-14.5-7.5-16.5c-0.4-2.4-0.5-4.4-0.5-5.8
				C209.9,49.1,219.5,56.8,225.7,62.4z"/>
			<path id="XMLID_133_" class="st0" d="M230.5,206.4c-2.2,0.3-4.4,0.7-6.7,1c0.1-4.6-0.2-11.4-2.7-19.3c-2.7-8.5-6.8-14.6-9.7-18.3
				c0.4-6.1,0.9-12.2,1.3-18.3c4.3,5.1,11.1,14.5,15,28C231.1,190.6,231,200.2,230.5,206.4z"/>
			<path id="XMLID_132_" class="st0" d="M90.9,150.8c-0.1,5.1-0.2,10.2-0.3,15.3c-3.2,4.3-7.6,11.2-10.3,20.7
				c-2.3,7.9-2.7,14.8-2.6,19.7c-2.7-0.5-5.3-1-8-1.5c0.2-8,1.6-21.2,8.6-35.5C82.2,161.4,86.9,155.2,90.9,150.8z"/>
		</g>
		<g id="XMLID_71_">
			<rect id="XMLID_135_" x="138.8" y="163.3" class="st1" width="25" height="7"/>
			<g id="XMLID_99_">
				<g id="XMLID_116_">
					<g id="XMLID_127_">
						<path id="XMLID_130_" class="st2" d="M198.3,143.1c3.3,4.7,3,11.5,2.3,25.1c-0.2,4.1-0.6,11.1-3,19.8
							c-1.7,6.3-4,14.7-9.8,22.5c-2.2,2.9-13.8,18.6-32.4,19.3c-18.8,0.7-31.4-14.3-36.1-19.9c-13.2-15.8-13.8-33.5-14-41.2
							c-0.2-10.6-0.6-27.1,9.5-34.3c7.2-5.1,12.8-1,39.2,1.7C183.2,138.9,192.8,135.4,198.3,143.1z"/>
						<path id="XMLID_129_" class="st3" d="M180.9,173.8c-1.3,32.6-7.8,41.5-10.5,44.8c-2.9,3.5-10,12.1-19.5,11
							c-9-1-14.2-10-15-11.5c-4.7-9.2-12.1-26.6-12.3-49.3c-0.1-15.1,2.9-27.5,5.8-35.9c8.4,0.9,16.9,1.9,25.5,2.8
							c8.4,0.9,16.7,1.7,25,2.5C181.3,152.6,181.2,164.9,180.9,173.8z"/>
						<path id="XMLID_128_" class="st3" d="M124.1,178.6c4.7,2.6,14.8,7.5,28.5,7.7c13.2,0.2,23.2-4.1,27.9-6.5"/>
					</g>
					<g id="XMLID_122_">
						<path id="XMLID_126_" class="st4" d="M111.4,264.3c-3.6,3.9-15.2-1.2-29.5-7.5c-13.1-5.8-21-9.3-20.8-13.5
							c0.3-6.4,18.8-15,33.3-9C108.7,240.3,115.7,259.4,111.4,264.3z"/>
						<line id="XMLID_125_" class="st3" x1="134.7" y1="216.9" x2="111.4" y2="255.2"/>
						<line id="XMLID_124_" class="st3" x1="110.8" y1="200.1" x2="88.1" y2="231.6"/>
						<path id="XMLID_123_" class="st3" d="M123.6,236.8c-3.2-1.3-8.3-3.8-13.3-8.5c-5-4.7-7.8-9.6-9.3-12.8"/>
					</g>
					<g id="XMLID_117_">
						<path id="XMLID_121_" class="st4" d="M241.2,243.1c0.4,5.3-11.4,10.1-25.9,16c-13.3,5.4-21.2,8.7-24.1,5.6
							c-4.4-4.7,2.3-24,16.6-30.2C222,228.4,240.7,236.6,241.2,243.1z"/>
						<path id="XMLID_120_" class="st3" d="M203.4,214c-1.9,3.7-5.2,8.9-10.5,14c-4.5,4.3-8.9,7-12.3,8.8"/>
						<path id="XMLID_119_" class="st3" d="M193.8,202c6.8,10,13.6,19.9,20.4,29.9"/>
						<path id="XMLID_118_" class="st3" d="M168.4,219.3c7.4,10.8,14.8,21.7,22.3,32.5"/>
					</g>
				</g>
				<g id="XMLID_108_">
					<path id="XMLID_115_" class="st5" d="M108.7,143.3c-0.5,1.3-2.2,5.9-3.3,12.2c-1,5.6-1.1,10.5-1,14.3c-1.6-0.2-3.7-0.7-6-1.8
						c-1.5-0.7-2.7-1.4-3.6-2.1c-0.7-5-1-11.2-0.6-18.2c0.6-9.9,2.7-17.9,4.7-23.6c2.1-0.1,5.2,0,8.8,1.2c3.9,1.2,6.7,3.1,8.4,4.4
						C112.3,134.9,110.1,139.7,108.7,143.3z"/>
					<g id="XMLID_109_">
						<path id="XMLID_114_" class="st2" d="M94.7,165.9c-0.2-0.1-0.3-0.1-0.5-0.2c-1.9,1.2-5.3,3.8-7.8,8.3c-2.4,4.2-3,8.2-3.2,10.9
							l-1.1-0.5v0c2.2-8.3,3.3-12.4,3.2-12.4c-0.1,0-1.3,4.1-3.6,12.3l-21.7-9.5c1.3-2.8,1.6-4.8,2.1-7.1c1.2-5.5,3.3-9.9,6.2-14.7
							c1.1-1.9,2.4-3.9,3.7-6c2.6-4,5.4-8.4,10.3-13.3c4.8-4.8,8.6-8.5,14.5-9.5c0.6-0.1,1.3-0.2,1.9-0.2c-2,5.7-4.1,13.8-4.7,23.6
							C93.7,154.7,94.1,160.8,94.7,165.9z"/>
						<path id="XMLID_113_" class="st4" d="M79.6,217.5c0.5,7.5,1.2,10.2-0.5,12c-1.5,1.5-4.4,2.2-6.5,1.3c-7.2-3.2-4.3-25.2-5-25.3
							c-0.6,0,0.3,15.5-6.5,18.8c-0.3,0.2-2.5,1.2-4,0.3c-4.5-2.8,1.8-19.9,0.8-20.3c-1.1-0.3-5.8,16.9-10.3,16.5
							c-1.9-0.2-3.4-3.6-3.7-6.3c-0.8-5.8,3.9-7.5,6.5-16c2.4-7.8-0.6-9.5,2.5-14.5c2.3-3.7,4.9-4.3,7.3-9.3l21.7,9.5
							c-1.3,6.9-2.5,15.4-2.5,22.2c0,1,0,1.9,0.1,2.8C79.5,212,79.5,214.8,79.6,217.5z"/>
						<path id="XMLID_112_" class="st4" d="M92.1,201.3c-0.4,1.9-2.1,3.5-4,4c-3.4,0.8-6.1-2.1-6.3-2.3c-2.3-2.7-1.7-6.6-1-10.8
							c0.5-3,0.9-5.6,1.3-7.8l1.1,0.5c0,0.9,0,1.6,0,2.1c2.4,2.8,4.3,5.3,5.7,7.3C92,198.6,92.4,199.9,92.1,201.3z"/>
						<line id="XMLID_111_" class="st4" x1="50.4" y1="199.5" x2="79.3" y2="206.5"/>
						<path id="XMLID_110_" class="st4" d="M67.6,152.6c2.7,1.5,6.9,4.3,10.7,8.9c4,4.8,6,9.5,7,12.5"/>
					</g>
				</g>
				<g id="XMLID_100_">
					<path id="XMLID_107_" class="st5" d="M197.6,145.4c1.5,3.2,1.7,6.2,2.2,12c0.5,5.5,0.4,10,0.2,13.3c3.6-0.9,7.2-1.9,10.9-2.8
						c0.4-2.2,0.8-5.3,1.2-9.1c0.6-6.8,0.4-11.4,0.3-12.8c-0.4-7.7-0.6-11.8-3.2-13.2c-1.8-0.9-3.4,0.1-8.3,1.5
						c-4.7,1.3-8.8,1.9-11.5,2.2C191.7,138,195.4,140.8,197.6,145.4z"/>
					<g id="XMLID_101_">
						<path id="XMLID_106_" class="st2" d="M211.2,168.5c0.2,0.5,0.6,1.3,1.1,2.3c1.6,2.9,3.7,4.4,4.2,5.3c2.3,4,2.8,7.8,2.8,10.3
							l1.2-0.3l0,0c-2.2-7.7-3.1-11.6-2.7-11.7c0.3-0.1,1.6,2.8,3.9,8.7c7.2-2.8,14.3-5.7,21.5-8.5c-0.1-0.6-0.2-1.4-0.3-2.3
							c-0.5-3.2-1.8-10.4-6-18.2c-1.9-3.5-4.2-7.8-9-11.8c-5.8-4.9-12-6.7-15.4-7.5c0.4,5.2,0.5,10.9,0.3,17.1
							C212.5,157.9,211.9,163.5,211.2,168.5z"/>
						<path id="XMLID_105_" class="st4" d="M221.1,215.9c-1,7-2,9.3-0.2,11.2c1.5,1.5,4.7,2.4,7.1,1.7c8.1-2.4,6.3-23,7.2-23
							c0.7,0-1.4,14.3,5.9,17.9c0.4,0.2,2.7,1.3,4.4,0.5c5.1-2.2-0.7-18.6,0.5-18.8c1.2-0.2,5.3,16.1,10.2,16.1c2.1,0,4-3.1,4.5-5.5
							c1.2-5.3-3.8-7.3-6.1-15.3c-1.6-5.6,0-7.7-0.5-10.6c-0.2-1.2-0.7-2.1-1.3-3.1c-2.7-4.6-7.3-10.8-8.6-12.5
							c-8.1,3-16.1,6-24.2,9c1.3,8.1,2.6,17.9,2.1,22.2c0,0.1-0.1,1.2-0.3,2.6C221.6,210.8,221.5,213.4,221.1,215.9z"/>
						<path id="XMLID_104_" class="st4" d="M208.4,200.9c0.3,1.8,2.1,3.4,4.1,4c3.7,1,6.9-1.5,7-1.6c2.7-2.3,2.3-6,1.8-9.9
							c-0.4-2.8-0.6-5.3-0.9-7.4l-1.2,0.3c0,0.8-0.1,1.5-0.1,2c-2.8,2.4-5.1,4.6-6.7,6.3C208.8,198.4,208.2,199.6,208.4,200.9z"/>
						<line id="XMLID_103_" class="st4" x1="254.5" y1="202.5" x2="222.1" y2="206.7"/>
						<path id="XMLID_102_" class="st4" d="M236.4,155.8c-2.4,0.8-5.8,2.2-9.2,5c-6.6,5.5-8.9,12.5-9.6,15.3"/>
					</g>
				</g>
			</g>
		</g>
		<path id="XMLID_98_" class="st6" d="M158,62.3c-9.9-2.2-15.5-10.2-18.5-14.5c-1.9-2.7-3.1-5.3-5.5-10.5
			c-4.1-8.9-6.2-13.3-5.3-15.5c3.5-8.4,33.5-2.6,39.3-1.5c12.8,2.5,29.4,5.7,30.8,13.8c0.7,4.2-3,8.2-9.3,15
			c-3.8,4.1-7.8,8.5-14.8,11.3C171.8,61.4,165.6,63.9,158,62.3z"/>
		<path id="XMLID_97_" class="st7" d="M157.3,48.9c-5.6-1.2-10.9-2.2-16-3c-0.5-0.9-1.1-2.3-1.9-3.8c-4.7-8.8-7.1-10-6.7-11.9
			c1-4.3,16-6.7,29.2-2.3c5.3,1.8,15.2,5,16.8,13c1.1,5.6-2.6,10.5-4,12.3C169.2,51.7,163.4,50.2,157.3,48.9z"/>
		<path id="XMLID_95_" class="st4" d="M228,117.8c-10.9,19.4-55.4,24.5-92,15.3c-30.8-7.7-65.1-27.8-65.3-46.7
			c0-3.7,1.1-13.1,2.5-20.7c0.5-2.7,2.5-14.3,4.2-18.7c7.1-18,51.9-23.6,89.3-15.3c28.4,6.3,65.2,23.5,68.7,45.3
			c1.6,10.4-0.7,22-0.7,22S232.6,109.6,228,117.8z"/>
		<path id="XMLID_94_" class="st4" d="M244.9,117.4c-5.1,3.8-12.6,1.7-15.3,0.8c2.4-4.3,5.7-11.3,7.3-20.3c1.5-8.7,0.9-16,0.1-20.8
			c2.7-0.2,10.2-0.3,13.8,4.4c0.9,1.1,2.2,3.4-0.2,17.9C248.8,109.8,247.9,115.1,244.9,117.4z"/>
		<path id="XMLID_93_" class="st4" d="M56.8,83.8c2.6,2.8,7.9,3.7,8.7,3.8c2,0.3,3.7,0.3,4.9,0.2C71.1,81,72,74,73.2,66.6
			c1.2-7.4,2.5-14.4,3.9-21c-9.1-2.9-13.5,0-14.5,0.8c-2.3,1.7-2.7,3.6-5.5,20C55,78.2,54.6,81.3,56.8,83.8z"/>
		<path id="XMLID_92_" class="st8" d="M211.3,108c-0.5,1.4-1.4,3.4-3,5.5c-11.3,14.7-41.1,8.1-63.5,3.8c-22.4-4.4-50.9-10-54.8-26
			c-1.3-5.6,0.3-12.8,2-20.3c1.2-5.2,2.5-10.7,4.5-15.1c9,7.1,19.7,14.6,32.2,21.8c1,0.6,8.8,5,17.6,9.2
			C170.5,98.3,195.3,104.7,211.3,108z"/>
		<path id="XMLID_91_" class="st9" d="M215.4,93.3c-0.6,3.2-1.8,9.4-4,14.7c-18.9-3.5-41.3-9.8-64.9-21.1
			c-20.3-9.7-36.9-20.8-49.8-31c0.7-1.5,1.5-2.9,2.5-4.1c9.8-12.5,35.3-7.2,66-0.7c27.1,5.7,47.5,10.3,51.3,23.5
			C217.9,79.9,216.6,86.8,215.4,93.3z"/>
		<path id="XMLID_90_" class="st10" d="M208.3,109.8c-16.4-3.5-36.3-9.2-58-18.7c-21.9-9.5-39.8-20.3-53.6-30
			c0.3-1.1,0.7-2.2,1.3-3.4c0.4-0.9,0.8-1.8,1.3-2.6c37,16.8,74,33.6,110.9,50.4c-0.2,0.6-0.4,1.2-0.7,1.9
			C209.1,108.4,208.7,109.2,208.3,109.8z"/>
		<g id="XMLID_72_">
			<path id="XMLID_73_" class="st11" d="M189.6,114.8c-2.1-0.6-4.1-1.3-6.2-1.9c1.7-5.6,3.4-11.1,5-16.7c-1.6-0.5-3.2-1-4.9-1.5
				c-1.5-0.5-3.1-1-4.6-1.5c-1.7,5.6-3.4,11.2-5.1,16.7c-7-2.1-14-4.2-21-6.3c1.9-6.3,3.8-12.6,5.7-18.9c8.1-4.3,16.1-8.5,24.2-12.8
				c4.2,8,8.3,15.9,12.5,23.9C193.4,102.2,191.5,108.5,189.6,114.8z"/>
			
				<rect id="XMLID_74_" x="163" y="90.3" transform="matrix(0.9573 0.289 -0.289 0.9573 34.2257 -44.2233)" class="st12" width="7.8" height="7.1"/>
			<g id="XMLID_75_">
				<path id="XMLID_76_" class="st11" d="M184.7,62.2l-26.8,14.3c-1.7,1.2-1.9,3.2-0.9,4.1c0.7,0.7,2,0.8,3.2,0.2
					c8.9-4.8,17.9-9.5,26.8-14.3L184.7,62.2z"/>
				<path id="XMLID_77_" class="st11" d="M181.5,63.8l14.7,27.9c1.2,1.7,3.2,2,4.2,1c0.7-0.7,0.8-2.1,0.1-3.3
					c-4.9-9.3-9.8-18.6-14.7-27.9L181.5,63.8z"/>
				<path id="XMLID_78_" class="st11" d="M170.8,73.2c0.9-3,1.8-5.9,2.7-8.9c0.5-1.2-0.1-2.5-1-2.8c-1-0.3-2.3,0.4-2.6,1.8
					c-1.1,3.6-2.2,7.2-3.3,10.8C168,73.8,169.4,73.5,170.8,73.2z"/>
			</g>
		</g>
		<text id="XMLID_146_" transform="matrix(0.9253 0.3792 -0.3792 0.9253 107.8364 62.8531)" class="st12 st13 st14">Hey</text>
		<text id="XMLID_164_" transform="matrix(0.9106 0.4133 -0.4133 0.9106 96.0896 89.2118)" class="st12 st13 st14">PaPi</text>
	</g>
	<ellipse id="XMLID_80_" class="st15" cx="152.3" cy="316.5" rx="103.7" ry="14.3"/>
</g>
</svg>
